<?xml version="1.0" encoding="utf-8"?>
<!-- Generator: Adobe Illustrator 26.0.3, SVG Export Plug-In . SVG Version: 6.00 Build 0)  -->
<svg version="1.1" id="Layer_1" xmlns="http://www.w3.org/2000/svg" xmlns:xlink="http://www.w3.org/1999/xlink" x="0px" y="0px"
	 viewBox="0 0 100.7 92.8" style="enable-background:new 0 0 100.7 92.8;" xml:space="preserve">
<style type="text/css">
	.st0{stroke:#000000;stroke-miterlimit:10;}
</style>
<path d="M81.2,17.5c3.2,0,5.8-2.6,5.8-5.8S84.4,6,81.2,6c-3.2,0-5.8,2.6-5.8,5.8l0,0C75.4,15,78,17.5,81.2,17.5z M81.2,10.1
	c1,0,1.8,0.8,1.8,1.8s-0.8,1.8-1.8,1.8c-1,0-1.8-0.8-1.8-1.8c0,0,0,0,0,0C79.4,10.9,80.2,10.1,81.2,10.1
	C81.1,10.1,81.2,10.1,81.2,10.1z"/>
<path d="M89.5,0H6.2C2.8,0,0,2.8,0,6.2v64.4c0,3.4,2.8,6.1,6.2,6.2h64.7V73H6.2C5,72.9,4,72,4,70.8V23.5h87.7v31.3h4V6.2
	C95.7,2.8,92.9,0,89.5,0z M4,19.5V6.2C4,5,5,4,6.2,4h83.3c1.2,0,2.2,1,2.2,2.2v13.4H4z"/>
<path d="M66.8,17.5c3.1,0,5.7-2.5,5.7-5.7s-2.5-5.7-5.7-5.7C63.6,6.3,61.1,8.8,61,12c0,3.1,2.6,5.6,5.7,5.6
	C66.7,17.5,66.7,17.5,66.8,17.5z M66.8,10.2c1,0,1.8,0.8,1.8,1.8c0,1-0.8,1.8-1.8,1.8S65,13,65,12c0,0,0,0,0,0
	C65,11,65.7,10.2,66.8,10.2C66.7,10.1,66.8,10.1,66.8,10.2L66.8,10.2z"/>
<path d="M52.2,17.5c3.2,0,5.8-2.6,5.8-5.8S55.4,6,52.2,6c-3.2,0-5.8,2.6-5.8,5.8l0,0C46.5,15,49,17.5,52.2,17.5z M52.2,10.2
	c1,0,1.8,0.8,1.8,1.8c0,1-0.8,1.8-1.8,1.8c-1,0-1.8-0.8-1.8-1.8c0,0,0,0,0,0C50.4,11,51.2,10.2,52.2,10.2
	C52.2,10.1,52.2,10.1,52.2,10.2L52.2,10.2z"/>
<path d="M25.9,29.1H12.2c-1-0.1-1.9,0.7-2,1.8c0,0.1,0,0.2,0,0.2v15.7c-0.1,1,0.7,1.9,1.8,2c0.1,0,0.2,0,0.2,0h13.8
	c1,0.1,1.9-0.7,2-1.8c0-0.1,0-0.2,0-0.2V31.1c0.1-1-0.7-1.9-1.8-2C26.1,29.1,26,29.1,25.9,29.1z M23.9,44.9h-9.8V33.1h9.8V44.9z"/>
<path d="M37.3,35.1h6.8c1.1,0,2-0.9,2-2s-0.9-2-2-2h-6.8c-1.1,0-2,0.9-2,2S36.2,35.1,37.3,35.1z"/>
<path d="M51,35.1h6.8c1.1,0,2-0.9,2-2s-0.9-2-2-2H51c-1-0.1-1.9,0.7-2,1.8c0,0.1,0,0.2,0,0.2C49,34.2,49.9,35.1,51,35.1z"/>
<path d="M65,35.1h6.8c1.1,0,2-0.9,2-2s-0.9-2-2-2H65c-1.1,0-2,0.9-2,2S63.9,35.1,65,35.1z"/>
<path d="M85.7,31.1h-6.8c-1.1,0-2,0.9-2,2s0.9,2,2,2h6.8c1,0.1,1.9-0.7,2-1.8c0-0.1,0-0.2,0-0.2C87.7,32,86.8,31.1,85.7,31.1z"/>
<path d="M37.3,44.9h6.8c1.1,0,2-0.9,2-2s-0.9-2-2-2h-6.8c-1.1,0-2,0.9-2,2S36.2,44.9,37.3,44.9z"/>
<path d="M51,44.9h6.8c1.1,0,2-0.9,2-2s-0.9-2-2-2H51c-1-0.1-1.9,0.7-2,1.8c0,0.1,0,0.2,0,0.2C49,44,49.9,44.9,51,44.9z"/>
<path d="M65,44.9h6.8c1.1,0,2-0.9,2-2s-0.9-2-2-2H65c-1.1,0-2,0.9-2,2S63.9,44.9,65,44.9z"/>
<path d="M85.7,40.9h-6.8c-1.1,0-2,0.9-2,2s0.9,2,2,2h6.8c1,0.1,1.9-0.7,2-1.8c0-0.1,0-0.2,0-0.2C87.7,41.8,86.8,40.9,85.7,40.9z"/>
<path d="M25.9,55H12.2c-1.1,0-2,0.9-2,2s0.9,2,2,2h13.8c1.1,0,2-0.9,2-2S27,55,25.9,55z"/>
<path d="M25.9,63H12.2c-1.1,0-2,0.9-2,2c0,1.1,0.9,2,2,2h13.8c1.1,0,2-0.9,2-2C27.9,63.9,27,63,25.9,63z"/>
<path d="M64.1,52.8c0.1,1-0.4,1.9-1,2c0,0,0,0-0.1,0c0,0-0.1,0-0.1,0H36.3c-0.7,0-1.3-0.9-1.3-2s0.6-2,1.3-2h26.6
	C63.6,50.8,64.1,51.7,64.1,52.8z"/>
<path d="M64.1,62c-0.1-0.2-0.3-0.5-0.4-0.7c-0.4-0.1-0.8-0.3-1.2-0.5H36.7c-0.9,0-1.6,0.9-1.6,2s0.7,2,1.6,2h26.4
	c0.1-0.1,0.3-0.3,0.4-0.4c0.1-0.4,0.4-0.8,0.6-1.2v0C64.1,62.8,64.1,62.4,64.1,62z"/>
<path d="M70.2,50.8c-1,0-1.9,0.3-2.6,1c-0.7,0.6-1.1,1.5-1.1,2.4v6.5h4.3v-6h20.9v-4L70.2,50.8z M99.6,51.8c-0.7-0.7-1.6-1-2.6-1
	H70.2c-1,0-1.9,0.3-2.6,1c-0.7,0.6-1.1,1.5-1.1,2.4v38.5l17.1-7l17.1,7V54.3C100.7,53.4,100.3,52.5,99.6,51.8L99.6,51.8z M97.2,88.2
	L84,82.8l-13.1,5.4V54.8h26.3V88.2z M70.2,50.8c-1,0-1.9,0.3-2.6,1c-0.7,0.6-1.1,1.5-1.1,2.4v6.5h4.3v-6h20.9v-4L70.2,50.8z"/>
<path class="st0" d="M84,81l-1.2-1.1c-2.1-1.9-3.7-3.5-5.1-4.8c-1.1-1.1-2.2-2.4-3.2-3.7c-0.7-0.9-1.2-1.9-1.7-2.9
	c-0.3-0.8-0.5-1.7-0.5-2.6c-0.1-3.3,2.6-6,5.9-6.1c0.1,0,0.1,0,0.2,0c1.1,0,2.1,0.3,3.1,0.8c1,0.6,1.8,1.3,2.4,2.3
	c0.7-0.9,1.6-1.7,2.6-2.3c0.9-0.5,1.9-0.7,2.9-0.7c3.3,0,6,2.6,6.1,5.9c0,0.1,0,0.1,0,0.2c0,0.9-0.2,1.8-0.5,2.6c-0.4,1-1,2-1.7,2.9
	c-1,1.3-2,2.5-3.2,3.7c-1.3,1.3-3,2.9-5.1,4.8L84,81z M84,78.7c1.9-1.8,3.6-3.3,4.8-4.6c1.1-1.1,2.1-2.2,3-3.4
	c0.6-0.8,1.2-1.7,1.6-2.6c0.3-0.7,0.5-1.5,0.5-2.2c0-1.2-0.4-2.3-1.2-3.1c-0.8-0.8-2-1.3-3.1-1.2c-1,0-2,0.3-2.8,0.9
	c-0.9,0.7-1.6,1.5-2.1,2.6h-1.4c-0.4-1-1.1-1.9-2-2.6c-0.8-0.6-1.8-0.9-2.8-0.9c-1.2,0-2.3,0.4-3.1,1.2c-0.8,0.8-1.3,2-1.2,3.1
	c0,0.8,0.2,1.6,0.4,2.3c0.4,0.9,0.9,1.8,1.6,2.6c0.9,1.2,1.9,2.3,3,3.4C80.5,75.4,82.1,76.9,84,78.7z"/>
</svg>
