<svg id="Layer_1" data-name="Layer 1" xmlns="http://www.w3.org/2000/svg" viewBox="0 0 101.25 93.46"><defs><style>.cls-1{fill:#fdb64e;}.cls-2{fill:red;}.cls-3{stroke:#000;stroke-miterlimit:10;}</style></defs><path d="M89.28,7H6A6.21,6.21,0,0,0-.22,13.14V77.53A6.21,6.21,0,0,0,6,83.7H66.38V79.92H6a2.21,2.21,0,0,1-2.19-2.2V30.48h87.7V57.7h4V13.14A6.21,6.21,0,0,0,89.28,7ZM80.9,20.72a1.8,1.8,0,1,1,1.8-1.8A1.79,1.79,0,0,1,80.9,20.72Zm-16.14-1.8a1.8,1.8,0,1,1,1.79,1.8A1.79,1.79,0,0,1,64.76,18.92ZM52,20.72a1.8,1.8,0,1,1,1.8-1.8A1.79,1.79,0,0,1,52,20.72Z" transform="translate(0.22 -6.96)"/><path class="cls-1" d="M68.35,18.92a1.8,1.8,0,1,1-1.8-1.79A1.79,1.79,0,0,1,68.35,18.92Z" transform="translate(0.22 -6.96)"/><path class="cls-1" d="M53.8,18.92A1.8,1.8,0,1,1,52,17.13,1.79,1.79,0,0,1,53.8,18.92Z" transform="translate(0.22 -6.96)"/><path class="cls-2" d="M82.7,18.92a1.8,1.8,0,1,1-1.8-1.79A1.79,1.79,0,0,1,82.7,18.92Z" transform="translate(0.22 -6.96)"/><path d="M25.69,36.07H11.94a1.88,1.88,0,0,0-2,2V53.81a1.87,1.87,0,0,0,2,2H25.69a1.89,1.89,0,0,0,2-2V38.06a1.89,1.89,0,0,0-2-2Zm-2,15.75H13.93V40.05H23.7Z" transform="translate(0.22 -6.96)"/><path d="M37.05,42.05h6.78a2,2,0,1,0,0-4H37.05a2,2,0,0,0,0,4Z" transform="translate(0.22 -6.96)"/><path d="M50.81,42.05h6.78a2,2,0,0,0,0-4H50.81a1.89,1.89,0,0,0-2,2A2,2,0,0,0,50.81,42.05Z" transform="translate(0.22 -6.96)"/><path d="M64.76,42.05h6.78a2,2,0,0,0,0-4H64.76a2,2,0,0,0,0,4Z" transform="translate(0.22 -6.96)"/><path d="M85.49,38.06H78.71a2,2,0,0,0,0,4h6.78a1.88,1.88,0,0,0,2-2,2,2,0,0,0-2-2Z" transform="translate(0.22 -6.96)"/><path d="M37.05,51.81h6.78a2,2,0,1,0,0-4H37.05a2,2,0,1,0,0,4Z" transform="translate(0.22 -6.96)"/><path d="M50.81,51.81h6.78a2,2,0,0,0,0-4H50.81a1.88,1.88,0,0,0-2,2A2,2,0,0,0,50.81,51.81Z" transform="translate(0.22 -6.96)"/><path d="M64.76,51.81h6.78a2,2,0,0,0,0-4H64.76a2,2,0,1,0,0,4Z" transform="translate(0.22 -6.96)"/><path d="M85.49,47.83H78.71a2,2,0,0,0,0,4h6.78a1.87,1.87,0,0,0,2-2,2,2,0,0,0-2-2Z" transform="translate(0.22 -6.96)"/><path d="M25.69,62H11.94a2,2,0,0,0,0,4H25.69a2,2,0,1,0,0-4Z" transform="translate(0.22 -6.96)"/><path d="M25.69,70H11.94a2,2,0,0,0,0,4H25.69a2,2,0,1,0,0-4Z" transform="translate(0.22 -6.96)"/><path d="M62.44,60.77a3.52,3.52,0,0,1,.33-1.16,4.74,4.74,0,0,1-1.33-1.82H36.6a2,2,0,0,0,0,4H61.31A4.57,4.57,0,0,1,62.44,60.77Z" transform="translate(0.22 -6.96)"/><path d="M64.29,70.48v-1a4.71,4.71,0,0,1-1.16-1.75H36.72a2,2,0,0,0,0,4H62.43A4.33,4.33,0,0,1,64.29,70.48Z" transform="translate(0.22 -6.96)"/><path class="cls-3" d="M100.53,61.18v38.5l-17.07-7-17.08,7V61.18a3.25,3.25,0,0,1,1.1-2.43,3.6,3.6,0,0,1,1.77-1A3.42,3.42,0,0,1,70,57.7H96.87a3.58,3.58,0,0,1,2.56,1A3.25,3.25,0,0,1,100.53,61.18Z" transform="translate(0.22 -6.96)"/><path class="cls-1" d="M83.83,87.1,82.65,86q-3.08-2.8-5.07-4.85a34.84,34.84,0,0,1-3.19-3.65,11.73,11.73,0,0,1-1.66-2.91A7.6,7.6,0,0,1,72.25,72a6,6,0,0,1,6.08-6.11,6.22,6.22,0,0,1,3.06.78,7.45,7.45,0,0,1,2.44,2.26,8.52,8.52,0,0,1,2.58-2.3,6.1,6.1,0,0,1,2.93-.74A6,6,0,0,1,95.42,72a7.6,7.6,0,0,1-.48,2.64,11.73,11.73,0,0,1-1.66,2.91,36.06,36.06,0,0,1-3.19,3.65q-2,2-5.07,4.85Z" transform="translate(0.22 -6.96)"/><path class="cls-1" d="M12.29,90.21A3.36,3.36,0,0,1,11.81,92a2.38,2.38,0,0,1-1,.92,1.37,1.37,0,0,1,.64.58,1.57,1.57,0,0,1,.25.86,1.74,1.74,0,0,1-1.17,1.66,5.69,5.69,0,0,1-2.38.41,19.14,19.14,0,0,1-2.72-.21c0-.92-.08-2.4-.16-4.46-.06-1.1-.14-2.62-.25-4.54A13.61,13.61,0,0,1,7.71,87Q12.29,87,12.29,90.21ZM9.8,94.09c0-.45-.31-.67-.93-.67h-.2l0,1.43C9.41,94.9,9.8,94.64,9.8,94.09ZM10,91.31a.79.79,0,0,0-.35-.69,1.4,1.4,0,0,0-.83-.2l-.09,1.76C9.57,92.21,10,91.92,10,91.31Z" transform="translate(0.22 -6.96)"/><path d="M19.25,88.75l-.11,3.15c0,.91-.05,2.27-.05,4.1a7.45,7.45,0,0,1-2.55.45,4,4,0,0,1-2.44-.64,3,3,0,0,1-1-1.69,17.9,17.9,0,0,1-.32-2.42c-.1-1.08-.16-2.06-.18-3h3.15c0,.42,0,1.13-.06,2.09,0,.54,0,1.31,0,2.3a3.92,3.92,0,0,0,.2,1.53.79.79,0,0,0,.8.42,1,1,0,0,0,.38-.09c0-.68,0-1.74-.06-3.2,0-.74-.09-1.75-.18-3Z" transform="translate(0.22 -6.96)"/><path d="M26.75,89.14c-.18.33-.54,1-1.1,2.1-.3.58-.72,1.37-1.25,2.35.05.08.31.38.79.91.29.3.69.69,1.21,1.15l-1.07.46-1.17.55c-.12-.15-.37-.5-.76-1-.21-.33-.42-.68-.62-1h0l-.05,1.68H20l-.13-3.91c0-.85-.11-2-.23-3.59h3.4L22.86,92h0c.14-.39.36-1,.66-1.9.13-.39.29-.91.48-1.59l1.38.31Z" transform="translate(0.22 -6.96)"/><path d="M34.05,89.14c-.18.33-.54,1-1.1,2.1-.3.58-.72,1.37-1.25,2.35.05.08.31.38.79.91.29.3.69.69,1.21,1.15l-1.07.46-1.17.55c-.12-.15-.37-.5-.76-1-.21-.33-.42-.68-.62-1h0l0,1.68h-2.7l-.13-3.91c0-.85-.11-2-.23-3.59h3.4L30.16,92h0c.14-.39.36-1,.66-1.9.13-.39.29-.91.48-1.59l1.38.31Z" transform="translate(0.22 -6.96)"/><path class="cls-2" d="M43.76,87.25c-.06.82-.14,2.31-.24,4.48-.06,1.34-.1,2.84-.12,4.52H41.28l-.06-2.76-2.07,3-2.23-2.95-.06,2.74H34.75c0-.9-.08-2.41-.16-4.54-.06-1.23-.15-2.71-.3-4.46h3.36l.6,1.38a18.28,18.28,0,0,0,.9,1.6c.17-.26.47-.81.92-1.64.16-.31.37-.76.62-1.34Z" transform="translate(0.22 -6.96)"/><path d="M50.17,96.25H47.5l-.18-.65c-.07,0-.26.12-.56.29a5.7,5.7,0,0,0-.64.5l-.28-.59c-.05-.12-.13-.29-.24-.5l-.26,1H43.92c.21-.81.53-2.14,1-4,.27-1.24.49-2.41.67-3.52h2.93c.09.51.34,1.7.75,3.56C49.46,93.29,49.77,94.6,50.17,96.25Zm-3.08-1.61c-.05-.17-.15-.45-.29-.84-.09-.21-.22-.51-.39-.88l-.35.92c-.09.25-.19.59-.31,1l.66-.06A3.82,3.82,0,0,0,47.09,94.64Z" transform="translate(0.22 -6.96)"/><path d="M56.91,91.55a2.66,2.66,0,0,1-.5,1.59,2.43,2.43,0,0,1-1.12.87c.1.15.33.46.7.93.19.21.47.49.85.85-.15,0-.49.19-1,.42l-1,.48c-.09-.11-.3-.42-.63-.9-.15-.25-.37-.67-.66-1.25h0l0,1.71H50.7l-.15-3.52c0-1-.09-2.29-.2-4a22.27,22.27,0,0,1,2.45-.15C55.54,88.6,56.91,89.59,56.91,91.55Zm-2.22,1.06a.7.7,0,0,0-.39-.67,1.44,1.44,0,0,0-.72-.12l0,1.67a1.43,1.43,0,0,0,.72-.18A.76.76,0,0,0,54.69,92.61Z" transform="translate(0.22 -6.96)"/><path d="M64.29,89.14c-.18.33-.54,1-1.1,2.1-.3.58-.72,1.37-1.25,2.35.05.08.31.38.8.91.28.3.68.69,1.2,1.15l-1.07.46-1.17.55c-.12-.15-.37-.5-.76-1-.21-.33-.42-.68-.62-1h0l0,1.68h-2.7l-.13-3.91c0-.85-.11-2-.23-3.59h3.4L60.4,92h0l.65-1.9c.13-.39.29-.91.48-1.59l1.38.31Z" transform="translate(0.22 -6.96)"/></svg>